<?xml version="1.0" encoding="iso-8859-1"?>
<!-- Uploaded to: SVG Repo, www.svgrepo.com, Generator: SVG Repo Mixer Tools -->
<svg fill="brown" height="800px" width="800px" version="1.1" id="Capa_1" xmlns="http://www.w3.org/2000/svg" xmlns:xlink="http://www.w3.org/1999/xlink" 
	 viewBox="0 0 611.983 611.983" xml:space="preserve">
<g>
	<path d="M600.978,498.539c-14-14-36.7-14.5-54.1-2.4c-0.2-0.2-0.3-0.4-0.5-0.6l-65.4-65.4c49.7-98.3-19.5-280.4-116.4-377.3
		c0,0-1-0.9-1.4-1.4c-33.2-33.2-78.8-51.4-128.4-51.4c-59.2,0-118.9,25.8-163.9,70.8c-40.9,40.9-65.8,93.2-70.2,147.3
		c-4.5,56.3,13.5,107.8,50.7,145c0.5,0.5,1.4,1.4,1.4,1.4c96.9,96.9,279,166.1,377.3,116.4l65.4,65.4c0.2,0.2,0.4,0.3,0.6,0.5
		c-12.1,17.4-11.6,40.1,2.4,54.1c15.9,15.9,43.2,14.4,61-3.4c7.1-7.1,11.6-15.8,13.4-24.7c8.9-1.8,17.5-6.3,24.7-13.4
		C615.378,541.739,616.878,514.439,600.978,498.539z M342.078,190.639c-3,37.1-20.5,73.4-49.3,102.2
		c-31.6,31.6-72.9,49.8-113.1,49.8c-21.5,0-52.5-5.3-77.5-30.3c-47.2-47.2-38.5-132.7,19.5-190.6c31.6-31.6,72.9-49.8,113.1-49.8
		c21.5,0,52.5,5.3,77.5,30.3C334.278,124.239,344.878,155.639,342.078,190.639z M268.378,146.039c23.1,23.1,14.5,69.3-19.3,103.1
		s-79.9,42.4-103.1,19.3c-23.1-23.1-14.5-69.3,19.3-103.1S245.278,122.939,268.378,146.039z"/>
</g>
</svg>