<svg width="1800px" height="1800px" version="1.1" id="Layer_1" xmlns="http://www.w3.org/2000/svg" xmlns:xlink="http://www.w3.org/1999/xlink" 
	  viewBox="0 0 611.983 611.983" xml:space="preserve">
<path fill="green" opacity="1.000000" stroke="none" 
	d="
M494.110870,47.080269 
	C508.558167,46.013008 521.731506,49.031441 534.399353,54.725735 
	C536.834900,55.820526 538.836182,56.853855 537.645081,60.256771 
	C528.961121,85.066063 521.261047,110.249161 508.223999,133.324036 
	C492.897919,160.450409 471.196869,181.005447 444.344208,196.457047 
	C430.413086,204.473297 415.604095,210.371658 400.409943,215.402878 
	C398.253601,216.116913 396.048462,217.025940 392.573730,216.348434 
	C402.259949,188.702103 416.197815,163.623306 432.877136,139.370789 
	C428.704041,141.000687 428.526794,141.129776 425.700470,144.610535 
	C410.937744,162.791840 398.497040,182.460342 387.991913,203.376709 
	C386.970795,205.409805 386.335022,207.738159 383.930878,209.509583 
	C380.988739,206.161987 380.689087,201.861771 380.006256,198.021317 
	C371.763367,151.660126 385.025848,112.213348 418.840820,79.658653 
	C437.946106,61.265423 460.856445,50.651150 487.168488,47.403828 
	C489.302063,47.140511 491.472839,47.178726 494.110870,47.080269 
z"/>
<path fill="brown" opacity="1.000000" stroke="none" 
	d="
M523.470764,313.509949 
	C506.189636,310.268921 489.710052,312.065948 473.153534,316.134766 
	C456.112518,320.322693 438.490021,322.258514 421.136353,319.964630 
	C390.239624,315.880585 367.207031,300.656769 357.570831,269.365417 
	C353.707184,256.818970 350.309906,244.184692 350.567383,230.810608 
	C350.695953,224.133011 352.749908,218.098038 354.880829,211.985184 
	C355.733276,209.539825 357.288666,208.470306 359.885590,209.454697 
	C362.734955,210.534790 365.712189,210.817993 368.726227,210.811340 
	C372.743805,210.802460 374.599640,212.135422 374.298676,216.780502 
	C373.416107,230.401886 376.918640,243.251724 383.168457,255.211014 
	C391.012054,270.220093 405.061707,274.054291 420.571686,274.692322 
	C438.716827,275.438721 456.363007,272.023376 473.878571,267.918854 
	C482.275574,265.951141 490.702271,266.044128 499.188477,266.188660 
	C512.047058,266.407715 524.484497,269.622162 537.103760,271.527130 
	C545.848938,272.847290 554.590027,273.691071 563.417664,272.788483 
	C571.205200,271.992249 577.146423,267.737366 581.815125,261.876404 
	C585.955627,256.678528 589.271301,250.883881 592.502380,245.026978 
	C596.009338,238.669922 595.333679,232.939560 591.610474,227.219421 
	C587.794983,221.357529 583.796326,215.615234 579.947083,209.774948 
	C572.511414,198.493195 567.113708,186.362762 566.120911,172.749969 
	C565.649841,166.290726 566.894653,159.826721 568.372925,153.501068 
	C569.626648,148.136612 570.394043,142.719055 570.867493,137.234207 
	C572.088745,123.084549 562.142029,116.140785 551.448059,113.285393 
	C547.468018,112.222694 543.502441,110.942017 539.212646,111.242439 
	C535.262024,111.519119 531.276794,111.301285 526.700684,111.301285 
	C526.581177,104.054138 529.919067,98.475471 532.620850,92.739258 
	C532.877258,92.194931 534.045898,91.819962 534.798279,91.807503 
	C555.222168,91.469620 575.159058,93.286507 592.127197,106.369217 
	C608.977356,119.361023 613.957214,137.100586 611.787903,157.442627 
	C611.241821,162.563431 610.590027,167.762833 609.147522,172.679901 
	C605.881836,183.811890 608.503235,193.605942 614.530212,203.036102 
	C619.551208,210.892212 625.266907,218.283676 629.815613,226.458389 
	C634.711670,235.257538 637.363464,244.473038 636.348816,254.629044 
	C635.894165,259.180054 634.082458,263.297394 632.415283,267.406219 
	C626.389099,282.258179 618.190674,295.725769 605.438660,305.813812 
	C588.837341,318.947052 569.605896,320.777985 549.502075,317.924622 
	C540.935608,316.708771 532.431396,315.053986 523.470764,313.509949 
M587.321106,158.930649 
	C583.720581,172.887863 587.803650,185.230927 595.312683,196.841171 
	C600.195801,204.391266 605.282166,211.815613 609.975098,219.481430 
	C615.358521,228.275131 615.785828,237.707230 612.514648,247.353912 
	C608.713379,258.564056 602.462891,268.355103 594.631042,277.124725 
	C584.855896,288.070374 571.971680,293.665283 557.835022,293.533905 
	C542.460449,293.391022 527.238464,289.742859 512.008606,287.229370 
	C501.245483,285.453064 490.244507,284.758057 479.721466,286.959015 
	C459.170197,291.257416 438.691498,295.308014 417.576813,294.048584 
	C399.497253,292.970215 383.261017,287.591125 371.427948,272.861694 
	C369.185669,270.070526 367.345062,266.956757 364.915161,263.400665 
	C364.915161,264.657349 364.776947,265.174133 364.935089,265.573669 
	C371.707550,282.686890 382.483002,296.069366 400.092926,302.980408 
	C422.747681,311.871399 445.845184,309.204254 469.013489,305.670532 
	C478.169708,304.274017 486.881287,301.066101 496.308380,300.528229 
	C517.204163,299.336060 537.136658,305.592560 557.620544,307.395935 
	C568.245239,308.331299 578.521606,307.354156 588.421570,303.334229 
	C604.718018,296.716888 614.037720,283.280579 622.280762,268.719788 
	C632.085266,251.400864 631.404846,234.863846 619.445740,218.766479 
	C615.280273,213.159653 611.462402,207.265991 607.850342,201.283234 
	C602.147888,191.838257 598.521301,182.081421 601.482666,170.527939 
	C603.910889,161.054581 605.152710,151.303055 605.032776,141.367233 
	C604.811096,123.005699 591.502625,105.577660 573.346375,100.741486 
	C573.341858,102.195755 574.639221,102.552986 575.476318,103.221306 
	C582.469666,108.804749 587.473938,115.702423 589.324280,124.570824 
	C591.684692,135.884003 590.359192,147.038177 587.321106,158.930649 
z"/>
<path fill="green" opacity="1.000000" stroke="none" 
	d="
M366.208740,172.785492 
	C370.940460,175.001511 372.747742,178.222336 372.518402,183.270630 
	C372.263367,188.884293 372.790222,194.564758 373.373840,200.174835 
	C373.798553,204.257385 372.271393,205.581833 368.377197,205.268845 
	C351.000519,203.872360 334.076721,200.568695 318.375854,192.703430 
	C287.472443,177.222549 264.841125,153.875168 252.985687,121.149582 
	C244.309601,97.200233 243.486755,72.978043 254.046341,49.126678 
	C255.115463,46.711834 255.896561,43.933243 259.716278,45.263607 
	C285.628021,54.288357 312.034393,62.109123 335.909485,76.126785 
	C352.890747,86.096893 367.359772,99.027512 379.902924,114.165840 
	C381.568390,116.175896 382.683289,118.047829 381.762238,120.921913 
	C377.235321,135.048019 374.048737,149.463821 372.915924,164.295654 
	C372.805054,165.747284 372.251190,167.165085 371.765472,169.164368 
	C358.923859,164.208511 348.833038,155.113297 336.948792,149.176208 
	C345.354187,158.605026 355.606873,165.621780 366.208740,172.785492 
z"/>
<path fill="green" opacity="1.000000" stroke="none" 
	d="
M472.936829,229.115997 
	C457.349304,228.484268 450.541016,222.365158 449.767548,204.330063 
	C449.647705,201.535706 450.726685,199.459106 453.123138,198.119339 
	C456.749329,196.092056 460.356201,194.013016 464.087097,192.193466 
	C473.864716,187.424896 481.666656,180.239029 488.755219,172.200882 
	C496.260254,163.690521 506.065613,159.449966 516.776855,156.992325 
	C521.439331,155.922546 526.110840,156.799606 530.377808,158.934723 
	C535.262695,161.379013 537.538391,165.988815 535.583801,172.673431 
	C532.091309,184.617737 535.696350,194.455399 542.460571,204.033188 
	C549.236633,213.627762 542.166504,227.413025 530.207397,228.202011 
	C527.254211,228.396851 524.162354,228.168076 521.281982,227.498596 
	C508.907013,224.622223 496.613800,224.275696 484.234131,227.514114 
	C480.719940,228.433411 477.008209,228.597504 472.936829,229.115997 
M496.345795,203.722122 
	C504.460510,198.856949 512.052307,199.769974 519.214539,205.751099 
	C519.974365,206.385681 520.860779,206.884811 521.734253,207.363205 
	C522.854492,207.976791 524.178406,209.178375 525.231628,207.638977 
	C526.403992,205.925613 524.933777,204.878052 523.636963,204.088989 
	C521.651184,202.880676 519.573669,201.824402 517.563904,200.654068 
	C511.028534,196.848358 510.316406,194.356552 514.044373,187.736862 
	C515.098572,185.864960 516.519348,184.202591 517.715942,182.406769 
	C518.581665,181.107407 520.190369,180.015381 519.167236,178.040665 
	C517.112671,177.292572 516.060852,178.837540 514.933594,179.928192 
	C511.628540,183.125763 509.385895,187.040726 508.328766,191.470810 
	C507.532257,194.808731 505.680084,196.318359 502.457977,197.354187 
	C497.583893,198.921066 492.922516,201.169037 488.220673,203.240829 
	C486.734772,203.895554 485.167023,204.750443 485.772614,207.382019 
	C489.707886,208.247787 492.278931,204.809372 496.345795,203.722122 
z"/>
</svg>